<?xml version="1.0" encoding="UTF-8" standalone="no"?>
<!DOCTYPE svg PUBLIC "-//W3C//DTD SVG 1.1//EN"
 "http://www.w3.org/Graphics/SVG/1.1/DTD/svg11.dtd">
<!-- Generated by graphviz version 2.40.1 (20161225.0304)
 -->
<!-- Title: models_diagram Pages: 1 -->
<svg width="1059pt" height="249pt"
 viewBox="0.00 0.00 1059.49 249.00" xmlns="http://www.w3.org/2000/svg" xmlns:xlink="http://www.w3.org/1999/xlink">
<g id="graph0" class="graph" transform="scale(1 1) rotate(0) translate(4 245)">
<title>models_diagram</title>
<polygon fill="transparent" stroke="transparent" points="-4,4 -4,-245 1055.4861,-245 1055.4861,4 -4,4"/>
<!-- _diagram_info -->
<g id="node1" class="node">
<title>_diagram_info</title>
<text text-anchor="start" x="8" y="-142.6" font-family="Times,serif" font-size="13.00" fill="#000000">Models diagram</text>
<text text-anchor="start" x="8" y="-129.6" font-family="Times,serif" font-size="13.00" fill="#000000">Date: Nov 12 2018 &#45; 19:07</text>
<text text-anchor="start" x="8" y="-116.6" font-family="Times,serif" font-size="13.00" fill="#000000">Migration version: 20181113030159</text>
<text text-anchor="start" x="8" y="-103.6" font-family="Times,serif" font-size="13.00" fill="#000000">Generated by RailRoady 1.5.3</text>
<text text-anchor="start" x="8" y="-90.6" font-family="Times,serif" font-size="13.00" fill="#000000">http://railroady.prestonlee.com</text>
</g>
<!-- Listing -->
<g id="node2" class="node">
<title>Listing</title>
<path fill="none" stroke="#000000" d="M236.1511,-.5C236.1511,-.5 362.2722,-.5 362.2722,-.5 368.2722,-.5 374.2722,-6.5 374.2722,-12.5 374.2722,-12.5 374.2722,-228.5 374.2722,-228.5 374.2722,-234.5 368.2722,-240.5 362.2722,-240.5 362.2722,-240.5 236.1511,-240.5 236.1511,-240.5 230.1511,-240.5 224.1511,-234.5 224.1511,-228.5 224.1511,-228.5 224.1511,-12.5 224.1511,-12.5 224.1511,-6.5 230.1511,-.5 236.1511,-.5"/>
<text text-anchor="middle" x="299.2117" y="-225.3" font-family="Times,serif" font-size="14.00" fill="#000000">Listing</text>
<polyline fill="none" stroke="#000000" points="224.1511,-218.5 374.2722,-218.5 "/>
<text text-anchor="start" x="232.1511" y="-203.3" font-family="Times,serif" font-size="14.00" fill="#000000">host_id :bigint(20)</text>
<text text-anchor="start" x="232.1511" y="-189.3" font-family="Times,serif" font-size="14.00" fill="#000000">headline :varchar(255)</text>
<text text-anchor="start" x="232.1511" y="-175.3" font-family="Times,serif" font-size="14.00" fill="#000000">description :text</text>
<text text-anchor="start" x="232.1511" y="-161.3" font-family="Times,serif" font-size="14.00" fill="#000000">photo_url :varchar(255)</text>
<text text-anchor="start" x="232.1511" y="-147.3" font-family="Times,serif" font-size="14.00" fill="#000000">external_id :int(11)</text>
<text text-anchor="start" x="232.1511" y="-133.3" font-family="Times,serif" font-size="14.00" fill="#000000">accommodates :int(11)</text>
<text text-anchor="start" x="232.1511" y="-119.3" font-family="Times,serif" font-size="14.00" fill="#000000">bedrooms :int(11)</text>
<text text-anchor="start" x="232.1511" y="-105.3" font-family="Times,serif" font-size="14.00" fill="#000000">bathrooms :int(11)</text>
<text text-anchor="start" x="232.1511" y="-91.3" font-family="Times,serif" font-size="14.00" fill="#000000">beds :int(11)</text>
<text text-anchor="start" x="232.1511" y="-77.3" font-family="Times,serif" font-size="14.00" fill="#000000">lat :float</text>
<text text-anchor="start" x="232.1511" y="-63.3" font-family="Times,serif" font-size="14.00" fill="#000000">lng :float</text>
<text text-anchor="start" x="232.1511" y="-49.3" font-family="Times,serif" font-size="14.00" fill="#000000">city :varchar(255)</text>
<text text-anchor="start" x="232.1511" y="-35.3" font-family="Times,serif" font-size="14.00" fill="#000000">created_at :datetime</text>
<text text-anchor="start" x="232.1511" y="-21.3" font-family="Times,serif" font-size="14.00" fill="#000000">updated_at :datetime</text>
<text text-anchor="start" x="232.1511" y="-7.3" font-family="Times,serif" font-size="14.00" fill="#000000">id :bigint(20)</text>
</g>
<!-- Host -->
<g id="node3" class="node">
<title>Host</title>
<path fill="none" stroke="#000000" d="M403.8201,-70.5C403.8201,-70.5 534.6033,-70.5 534.6033,-70.5 540.6033,-70.5 546.6033,-76.5 546.6033,-82.5 546.6033,-82.5 546.6033,-158.5 546.6033,-158.5 546.6033,-164.5 540.6033,-170.5 534.6033,-170.5 534.6033,-170.5 403.8201,-170.5 403.8201,-170.5 397.8201,-170.5 391.8201,-164.5 391.8201,-158.5 391.8201,-158.5 391.8201,-82.5 391.8201,-82.5 391.8201,-76.5 397.8201,-70.5 403.8201,-70.5"/>
<text text-anchor="middle" x="469.2117" y="-155.3" font-family="Times,serif" font-size="14.00" fill="#000000">Host</text>
<polyline fill="none" stroke="#000000" points="391.8201,-148.5 546.6033,-148.5 "/>
<text text-anchor="start" x="399.8201" y="-133.3" font-family="Times,serif" font-size="14.00" fill="#000000">id :bigint(20)</text>
<text text-anchor="start" x="399.8201" y="-119.3" font-family="Times,serif" font-size="14.00" fill="#000000">first_name :varchar(255)</text>
<text text-anchor="start" x="399.8201" y="-105.3" font-family="Times,serif" font-size="14.00" fill="#000000">last_name :varchar(255)</text>
<text text-anchor="start" x="399.8201" y="-91.3" font-family="Times,serif" font-size="14.00" fill="#000000">created_at :datetime</text>
<text text-anchor="start" x="399.8201" y="-77.3" font-family="Times,serif" font-size="14.00" fill="#000000">updated_at :datetime</text>
</g>
<!-- Channel -->
<g id="node4" class="node">
<title>Channel</title>
<path fill="none" stroke="#000000" d="M576.7063,-77.5C576.7063,-77.5 685.717,-77.5 685.717,-77.5 691.717,-77.5 697.717,-83.5 697.717,-89.5 697.717,-89.5 697.717,-151.5 697.717,-151.5 697.717,-157.5 691.717,-163.5 685.717,-163.5 685.717,-163.5 576.7063,-163.5 576.7063,-163.5 570.7063,-163.5 564.7063,-157.5 564.7063,-151.5 564.7063,-151.5 564.7063,-89.5 564.7063,-89.5 564.7063,-83.5 570.7063,-77.5 576.7063,-77.5"/>
<text text-anchor="middle" x="631.2117" y="-148.3" font-family="Times,serif" font-size="14.00" fill="#000000">Channel</text>
<polyline fill="none" stroke="#000000" points="564.7063,-141.5 697.717,-141.5 "/>
<text text-anchor="start" x="572.7063" y="-126.3" font-family="Times,serif" font-size="14.00" fill="#000000">id :bigint(20)</text>
<text text-anchor="start" x="572.7063" y="-112.3" font-family="Times,serif" font-size="14.00" fill="#000000">name :varchar(255)</text>
<text text-anchor="start" x="572.7063" y="-98.3" font-family="Times,serif" font-size="14.00" fill="#000000">created_at :datetime</text>
<text text-anchor="start" x="572.7063" y="-84.3" font-family="Times,serif" font-size="14.00" fill="#000000">updated_at :datetime</text>
</g>
<!-- ApplicationRecord -->
<g id="node5" class="node">
<title>ApplicationRecord</title>
<ellipse fill="none" stroke="#000000" cx="793.2117" cy="-120.5" rx="77.2916" ry="18"/>
<text text-anchor="middle" x="793.2117" y="-116.3" font-family="Times,serif" font-size="14.00" fill="#000000">ApplicationRecord</text>
</g>
<!-- Reservation -->
<g id="node6" class="node">
<title>Reservation</title>
<path fill="none" stroke="#000000" d="M900.9373,-42.5C900.9373,-42.5 1039.4861,-42.5 1039.4861,-42.5 1045.4861,-42.5 1051.4861,-48.5 1051.4861,-54.5 1051.4861,-54.5 1051.4861,-186.5 1051.4861,-186.5 1051.4861,-192.5 1045.4861,-198.5 1039.4861,-198.5 1039.4861,-198.5 900.9373,-198.5 900.9373,-198.5 894.9373,-198.5 888.9373,-192.5 888.9373,-186.5 888.9373,-186.5 888.9373,-54.5 888.9373,-54.5 888.9373,-48.5 894.9373,-42.5 900.9373,-42.5"/>
<text text-anchor="middle" x="970.2117" y="-183.3" font-family="Times,serif" font-size="14.00" fill="#000000">Reservation</text>
<polyline fill="none" stroke="#000000" points="888.9373,-176.5 1051.4861,-176.5 "/>
<text text-anchor="start" x="896.9373" y="-161.3" font-family="Times,serif" font-size="14.00" fill="#000000">channel_id :int(11)</text>
<text text-anchor="start" x="896.9373" y="-147.3" font-family="Times,serif" font-size="14.00" fill="#000000">listing_id :bigint(20)</text>
<text text-anchor="start" x="896.9373" y="-133.3" font-family="Times,serif" font-size="14.00" fill="#000000">arrival :date</text>
<text text-anchor="start" x="896.9373" y="-119.3" font-family="Times,serif" font-size="14.00" fill="#000000">departure :date</text>
<text text-anchor="start" x="896.9373" y="-105.3" font-family="Times,serif" font-size="14.00" fill="#000000">guest_name :varchar(255)</text>
<text text-anchor="start" x="896.9373" y="-91.3" font-family="Times,serif" font-size="14.00" fill="#000000">value :varchar(255)</text>
<text text-anchor="start" x="896.9373" y="-77.3" font-family="Times,serif" font-size="14.00" fill="#000000">created_at :datetime</text>
<text text-anchor="start" x="896.9373" y="-63.3" font-family="Times,serif" font-size="14.00" fill="#000000">updated_at :datetime</text>
<text text-anchor="start" x="896.9373" y="-49.3" font-family="Times,serif" font-size="14.00" fill="#000000">id :bigint(20)</text>
</g>
</g>
</svg>
